<svg xmlns="http://www.w3.org/2000/svg" viewBox="0 0 5000 2261.43"><title>JS Logo</title><g id="Layer_4" data-name="Layer 4"><path d="M2955.36,67.31h-443L1649.49,1561.88a0,0,0,0,1,0,0A734.7,734.7,0,0,1,1385,1822c-353.21,203.92-804.86,82.92-1008.79-270.31L44,1743.53C290.42,2170.29,774.8,2374,1232.74,2283.72a1121.05,1121.05,0,0,0,344.12-129.48c170.67-98.52,305.64-235.12,400.42-392.87,3.55-5.87,7-11.82,10.48-17.77l-.17-.1Z" transform="translate(-44 -43.33)"/><path d="M2132.64,2280.79h443L3438.51,786.22a0,0,0,0,1,0,0A734.7,734.7,0,0,1,3703,526.09c353.21-203.92,804.86-82.92,1008.79,270.31L5044,604.57C4797.58,177.81,4313.2-25.87,3855.26,64.38a1121.05,1121.05,0,0,0-344.12,129.48C3340.47,292.38,3205.5,429,3110.71,586.73c-3.55,5.87-7,11.82-10.48,17.77l.17.1Z" transform="translate(-44 -43.33)"/></g></svg>